<svg width="25" height="25" viewBox="0 0 25 25" fill="none" xmlns="http://www.w3.org/2000/svg">
<path d="M7.44702 18.8689V21.1189" stroke="#8D7E76" stroke-width="1.60606" stroke-linecap="round" stroke-linejoin="round"/>
<path d="M17.947 18.8689V21.1189" stroke="#8D7E76" stroke-width="1.60606" stroke-linecap="round" stroke-linejoin="round"/>
<path d="M5.94702 10.6191V5.74414C5.94702 5.24686 6.14457 4.76995 6.4962 4.41832C6.84783 4.06668 7.32474 3.86914 7.82202 3.86914C8.3193 3.86914 8.79622 4.06668 9.14785 4.41832C9.49948 4.76995 9.69702 5.24686 9.69702 5.74414" stroke="#8D7E76" stroke-width="1.60606" stroke-linecap="round" stroke-linejoin="round"/>
<path d="M19.4469 9.8689H13.4469V14.3689H19.4469V9.8689Z" stroke="#8D7E76" stroke-width="1.60606" stroke-linecap="round" stroke-linejoin="round"/>
<path d="M19.4471 10.6189H22.4471C22.6461 10.6189 22.8368 10.6979 22.9775 10.8386C23.1181 10.9792 23.1971 11.17 23.1971 11.3689V14.3689C23.1971 15.5624 22.723 16.707 21.8791 17.5509C21.0352 18.3948 19.8906 18.8689 18.6971 18.8689H6.69714C5.50367 18.8689 4.35908 18.3948 3.51516 17.5509C2.67125 16.707 2.19714 15.5624 2.19714 14.3689V11.3689C2.19714 11.17 2.27616 10.9792 2.41681 10.8386C2.55747 10.6979 2.74823 10.6189 2.94714 10.6189H13.4471" stroke="#8D7E76" stroke-width="1.60606" stroke-linecap="round" stroke-linejoin="round"/>
</svg>
