<svg width="166" height="44" viewBox="0 0 166 44" fill="none" xmlns="http://www.w3.org/2000/svg">
<path d="M37.125 37.1248V19.8513C37.1219 19.661 37.0808 19.4733 37.0041 19.2991C36.9273 19.125 36.8165 18.9679 36.6781 18.8373L22.9281 6.34195C22.6746 6.11005 22.3435 5.98145 22 5.98145C21.6565 5.98145 21.3253 6.11005 21.0719 6.34195L7.32187 18.8373C7.18351 18.9679 7.07269 19.125 6.99595 19.2991C6.9192 19.4733 6.87808 19.661 6.875 19.8513V37.1248" stroke="#9F928B" stroke-width="2.75" stroke-linecap="round" stroke-linejoin="round"/>
<path d="M2.75 37.125H41.25" stroke="#9F928B" stroke-width="2.75" stroke-linecap="round" stroke-linejoin="round"/>
<path d="M26.125 37.125V27.5C26.125 27.1353 25.9801 26.7856 25.7223 26.5277C25.4644 26.2699 25.1147 26.125 24.75 26.125H19.25C18.8853 26.125 18.5356 26.2699 18.2777 26.5277C18.0199 26.7856 17.875 27.1353 17.875 27.5V37.125" stroke="#9F928B" stroke-width="2.75" stroke-linecap="round" stroke-linejoin="round"/>
<path d="M53.9174 23V5.54545H60.4629C61.8038 5.54545 62.9288 5.79545 63.8379 6.29545C64.7527 6.79545 65.443 7.48295 65.9089 8.35795C66.3805 9.22727 66.6163 10.2159 66.6163 11.3239C66.6163 12.4432 66.3805 13.4375 65.9089 14.3068C65.4373 15.1761 64.7413 15.8608 63.8208 16.3608C62.9004 16.8551 61.7669 17.1023 60.4203 17.1023H56.0822V14.5028H59.9941C60.7782 14.5028 61.4203 14.3665 61.9203 14.0938C62.4203 13.821 62.7896 13.446 63.0282 12.9688C63.2725 12.4915 63.3947 11.9432 63.3947 11.3239C63.3947 10.7045 63.2725 10.1591 63.0282 9.6875C62.7896 9.21591 62.4174 8.84943 61.9118 8.58807C61.4118 8.32102 60.7669 8.1875 59.9771 8.1875H57.0794V23H53.9174ZM69.4107 23V5.54545H75.9562C77.2971 5.54545 78.4221 5.77841 79.3312 6.24432C80.246 6.71023 80.9363 7.36364 81.4022 8.20454C81.8738 9.03977 82.1096 10.0142 82.1096 11.1278C82.1096 12.2472 81.871 13.2187 81.3937 14.0426C80.9221 14.8608 80.2261 15.4943 79.3056 15.9432C78.3852 16.3864 77.2545 16.608 75.9136 16.608H71.2517V13.983H75.4875C76.2715 13.983 76.9136 13.875 77.4136 13.6591C77.9136 13.4375 78.2829 13.1165 78.5215 12.696C78.7659 12.2699 78.888 11.7472 78.888 11.1278C78.888 10.5085 78.7659 9.98011 78.5215 9.54261C78.2772 9.09943 77.9051 8.7642 77.4051 8.53693C76.9051 8.30398 76.2602 8.1875 75.4704 8.1875H72.5727V23H69.4107ZM78.4278 15.0909L82.7488 23H79.2204L74.9761 15.0909H78.4278ZM85.0681 23V5.54545H96.4204V8.19602H88.2301V12.9347H95.8323V15.5852H88.2301V20.3494H96.4886V23H85.0681ZM99.6942 5.54545H103.564L108.745 18.1932H108.95L114.132 5.54545H118.001V23H114.967V11.0085H114.805L109.981 22.9489H107.714L102.89 10.983H102.728V23H99.6942V5.54545ZM124.654 5.54545V23H121.492V5.54545H124.654ZM139.129 5.54545H142.291V16.9489C142.291 18.1989 141.995 19.2983 141.405 20.2472C140.819 21.196 139.995 21.9375 138.933 22.4716C137.87 23 136.629 23.2642 135.209 23.2642C133.782 23.2642 132.538 23 131.476 22.4716C130.413 21.9375 129.589 21.196 129.004 20.2472C128.419 19.2983 128.126 18.1989 128.126 16.9489V5.54545H131.288V16.6847C131.288 17.4119 131.447 18.0597 131.765 18.6278C132.089 19.196 132.544 19.642 133.129 19.9659C133.714 20.2841 134.407 20.4432 135.209 20.4432C136.01 20.4432 136.703 20.2841 137.288 19.9659C137.879 19.642 138.334 19.196 138.652 18.6278C138.97 18.0597 139.129 17.4119 139.129 16.6847V5.54545ZM145.776 5.54545H149.645L154.827 18.1932H155.031L160.213 5.54545H164.083V23H161.048V11.0085H160.887L156.063 22.9489H153.796L148.972 10.983H148.81V23H145.776V5.54545Z" fill="#9F928B"/>
<path d="M87.5787 28.8182V39H86.0424V28.8182H87.5787ZM91.1831 34.4659V39H89.6966V31.3636H91.1234V32.6065H91.2179C91.3935 32.2022 91.6686 31.8774 92.0431 31.6321C92.421 31.3868 92.8966 31.2642 93.47 31.2642C93.9904 31.2642 94.4461 31.3736 94.8372 31.5923C95.2283 31.8078 95.5315 32.1293 95.747 32.5568C95.9624 32.9844 96.0701 33.513 96.0701 34.1428V39H94.5836V34.3217C94.5836 33.7682 94.4395 33.3357 94.1511 33.0241C93.8627 32.7093 93.4667 32.5518 92.9629 32.5518C92.6182 32.5518 92.3116 32.6264 92.0431 32.7756C91.778 32.9247 91.5675 33.1435 91.4118 33.4318C91.2593 33.7169 91.1831 34.0616 91.1831 34.4659ZM101.628 31.3636V32.5568H97.4572V31.3636H101.628ZM98.5758 29.5341H100.062V36.7578C100.062 37.0462 100.105 37.2633 100.192 37.4091C100.278 37.5516 100.389 37.6494 100.525 37.7024C100.664 37.7521 100.815 37.777 100.977 37.777C101.096 37.777 101.201 37.7687 101.29 37.7521C101.38 37.7356 101.449 37.7223 101.499 37.7124L101.768 38.9403C101.681 38.9735 101.559 39.0066 101.4 39.0398C101.241 39.0762 101.042 39.0961 100.803 39.0994C100.412 39.1061 100.047 39.0365 99.7093 38.8906C99.3713 38.7448 99.0978 38.5194 98.889 38.2145C98.6802 37.9096 98.5758 37.5268 98.5758 37.0661V29.5341ZM106.482 39.1541C105.73 39.1541 105.082 38.9934 104.538 38.6719C103.998 38.3471 103.58 37.8913 103.285 37.3047C102.993 36.7147 102.848 36.0237 102.848 35.2315C102.848 34.4493 102.993 33.7599 103.285 33.1634C103.58 32.5668 103.991 32.1011 104.518 31.7663C105.048 31.4316 105.668 31.2642 106.377 31.2642C106.808 31.2642 107.226 31.3355 107.63 31.478C108.035 31.6205 108.398 31.8442 108.719 32.1491C109.041 32.4541 109.294 32.8501 109.48 33.3374C109.665 33.8213 109.758 34.4096 109.758 35.1023V35.6293H103.688V34.5156H108.301C108.301 34.1245 108.222 33.7782 108.063 33.4766C107.904 33.1716 107.68 32.9313 107.392 32.7557C107.107 32.58 106.772 32.4922 106.387 32.4922C105.97 32.4922 105.605 32.5949 105.294 32.8004C104.985 33.0026 104.747 33.2678 104.578 33.5959C104.412 33.9207 104.329 34.2737 104.329 34.6548V35.5249C104.329 36.0353 104.419 36.4695 104.598 36.8274C104.78 37.1854 105.033 37.4588 105.358 37.6477C105.683 37.8333 106.063 37.9261 106.497 37.9261C106.779 37.9261 107.035 37.8864 107.267 37.8068C107.499 37.724 107.7 37.6013 107.869 37.4389C108.038 37.2765 108.167 37.076 108.257 36.8374L109.664 37.0909C109.551 37.5052 109.349 37.8681 109.057 38.1797C108.769 38.4879 108.406 38.7282 107.968 38.9006C107.534 39.0696 107.039 39.1541 106.482 39.1541ZM111.407 39V31.3636H112.844V32.5767H112.924C113.063 32.1657 113.308 31.8426 113.66 31.6072C114.014 31.3686 114.415 31.2493 114.863 31.2493C114.956 31.2493 115.065 31.2526 115.191 31.2592C115.32 31.2659 115.421 31.2741 115.494 31.2841V32.706C115.434 32.6894 115.328 32.6712 115.176 32.6513C115.023 32.6281 114.871 32.6165 114.719 32.6165C114.367 32.6165 114.054 32.6911 113.779 32.8402C113.507 32.986 113.292 33.1899 113.133 33.4517C112.974 33.7102 112.894 34.0052 112.894 34.3366V39H111.407ZM116.781 39V31.3636H118.267V39H116.781ZM117.531 30.1854C117.273 30.1854 117.051 30.0992 116.865 29.9268C116.683 29.7512 116.592 29.5424 116.592 29.3004C116.592 29.0552 116.683 28.8464 116.865 28.674C117.051 28.4983 117.273 28.4105 117.531 28.4105C117.79 28.4105 118.01 28.4983 118.192 28.674C118.378 28.8464 118.471 29.0552 118.471 29.3004C118.471 29.5424 118.378 29.7512 118.192 29.9268C118.01 30.0992 117.79 30.1854 117.531 30.1854ZM123.483 39.1541C122.768 39.1541 122.143 38.9901 121.609 38.6619C121.076 38.3338 120.661 37.8748 120.366 37.2848C120.071 36.6948 119.924 36.0054 119.924 35.2166C119.924 34.4245 120.071 33.7318 120.366 33.1385C120.661 32.5452 121.076 32.0845 121.609 31.7564C122.143 31.4283 122.768 31.2642 123.483 31.2642C124.199 31.2642 124.824 31.4283 125.358 31.7564C125.891 32.0845 126.306 32.5452 126.601 33.1385C126.896 33.7318 127.043 34.4245 127.043 35.2166C127.043 36.0054 126.896 36.6948 126.601 37.2848C126.306 37.8748 125.891 38.3338 125.358 38.6619C124.824 38.9901 124.199 39.1541 123.483 39.1541ZM123.488 37.9062C123.952 37.9062 124.337 37.7836 124.642 37.5384C124.947 37.2931 125.172 36.9666 125.318 36.5589C125.467 36.1513 125.542 35.7022 125.542 35.2116C125.542 34.7244 125.467 34.277 125.318 33.8693C125.172 33.4583 124.947 33.1286 124.642 32.88C124.337 32.6314 123.952 32.5071 123.488 32.5071C123.021 32.5071 122.633 32.6314 122.325 32.88C122.02 33.1286 121.793 33.4583 121.644 33.8693C121.498 34.277 121.425 34.7244 121.425 35.2116C121.425 35.7022 121.498 36.1513 121.644 36.5589C121.793 36.9666 122.02 37.2931 122.325 37.5384C122.633 37.7836 123.021 37.9062 123.488 37.9062ZM128.702 39V31.3636H130.139V32.5767H130.219C130.358 32.1657 130.603 31.8426 130.955 31.6072C131.309 31.3686 131.71 31.2493 132.158 31.2493C132.25 31.2493 132.36 31.2526 132.486 31.2592C132.615 31.2659 132.716 31.2741 132.789 31.2841V32.706C132.729 32.6894 132.623 32.6712 132.471 32.6513C132.318 32.6281 132.166 32.6165 132.013 32.6165C131.662 32.6165 131.349 32.6911 131.074 32.8402C130.802 32.986 130.587 33.1899 130.428 33.4517C130.268 33.7102 130.189 34.0052 130.189 34.3366V39H128.702Z" fill="#9F928B"/>
</svg>
