<svg width="300px" height="200px" xmlns="http://www.w3.org/2000/svg">
    <g transform="translate(0, 0)scale(0.6)">
        <path d="M27.995 5.338v-1.654c0-1.442-1.169-2.611-2.611-2.611h-17.167c-1.442 0-2.61 1.169-2.61 2.611v1.654h-0.489c
        -1.204 0-2.178 0.976-2.178 2.179v3.649c0 1.203 0.975 2.179 2.178 2.179l10.037-0.003c0.613 0 1.113 0.499 1.113
        1.113v3.679h-2.131v12.795h5.331v-12.795h-2.134v-3.679c0-1.203-0.976-2.179-2.179-2.179h-1.32v0.003h-8.716c-0.613
        0-1.112-0.499-1.112-1.113v-3.649c0-0.613 0.499-1.113 1.112-1.113h0.489v1.654c0 1.442 1.168 2.611 2.61
        2.611h17.167c1.442 0 2.611-1.169 2.611-2.611v-1.654h1.066v-1.066h-1.066zM18.4 29.861h-3.199v-10.663h3.199v10.663zM26.929
        8.058c0 0.852-0.694 1.545-1.545 1.545h-17.167c-0.852 0-1.544-0.693-1.544-1.545v-4.374c0-0.852 0.692-1.545
        1.544-1.545h17.167c0.852 0 1.545 0.693 1.545 1.545v4.374z" fill="#9F928B"/>
    </g>

    <g transform="translate(50, 50)scale(0.6)">
        <path d="M22.347 14.827v0l-10.4-10.453-0.213 0.16v-0.267c0-1.76-1.44-3.2-3.2-3.2s-3.2 1.44-3.2 3.2v6.667l-4.427
        4.427c-1.227 1.227-1.227 3.2 0 4.427l6.027 6.027c0.587 0.64 1.44 0.907 2.24 0.907s1.6-0.32
        2.24-0.907l7.627-7.68h6.56l-3.253-3.307zM6.4 4.267c0-1.173 0.96-2.133 2.133-2.133s2.133 0.96 2.133
        2.133v1.333l-4.267 4.267v-5.6zM18.613 17.067l-8 8c-0.373 0.373-0.907 0.587-1.493 0.587-0.533
        0-1.067-0.213-1.44-0.587l-6.027-6.027c-0.8-0.8-0.8-2.133 0-2.933l9.013-8.96v6.72h1.067v-7.787l0.16-0.16 11.147
        11.147h-4.427z" fill="#9F928B"/>
    </g>

    <g transform="translate(100, 0) scale(0.03)">
        <path d="M485.193,16.349H107.864c-3.843,0-7.426,2.069-9.389,5.439L65.869,78.853c-1.91,3.334-1.91,7.473,0.018,10.808
        c1.927,3.323,5.516,5.392,9.359,5.392h113.857c-0.266,0.851-0.266,50.963,0.077,51.921h-85.337
        c-8.242,0-14.952,6.704-14.952,14.958v36.679c0,8.253,6.71,14.958,14.952,14.958h181.984c8.248,0,14.958-6.704,14.958-14.958
        v-36.679c0-8.253-6.71-14.958-14.958-14.958h-79.708c0.343-0.958,0.343-51.07,0.077-51.921h160.942v400.599H385.3v-67.174
        l42.379,42.379v24.796h18.162V95.052h39.352c5.96,0,10.807-4.848,10.807-10.819V27.156C496,21.197,491.152,16.349,485.193,16.349z
        M282.623,195.406H107.054v-30.27h175.569V195.406z M385.3,153.76l34.527,34.527L385.3,222.815V153.76z M385.3,243.697
        l34.527,34.527L385.3,312.751V243.697z M400.547,233.256l27.131-27.131v54.262L400.547,233.256z M427.679,170.45l-27.131-27.131
        l27.131-27.131V170.45z M374.161,76.89l34.303-34.303l34.291,34.303H374.161z M213.864,46.915l29.975,29.975h-59.95L213.864,46.915
        z M166.3,68.802l-34.291-34.291h68.57L166.3,68.802z M227.143,34.511h68.576l-34.285,34.291L227.143,34.511z M308.997,46.915
        29.975,29.975h-59.944L308.997,46.915z M356.567,68.802l-34.285-34.291h68.576L356.567,68.802z M110.371,37.58
        c0.443,1.058,38.335,39.31,38.335,39.31H87.91L110.371,37.58z M423.126,95.052L385.3,132.878V95.052H423.126z M385.3,333.627
        l36.076,36.07L385.3,407.412V333.627z M427.679,445.167l-27.273-27.273l27.273-28.509V445.167z M400.547,323.192l27.131-27.131
        v54.256L400.547,323.192z M477.838,76.89h-9.554c-0.13-0.148-42.219-42.379-42.219-42.379h51.773V76.89z"
              fill="#9F928B"/>

        <path d="M62.438,314.399c21.934,0,39.787-17.854,39.787-39.777c0-21.944-17.854-39.798-39.787-39.798s-39.777,17.854-39.777,39.798
        C22.661,296.545,40.504,314.399,62.438,314.399z M62.438,256.641c9.907,0,17.971,8.075,17.971,17.982s-8.064,17.96-17.971,17.96
        s-17.96-8.053-17.96-17.96S52.531,256.641,62.438,256.641z" fill="#9F928B"/>

        <path d="M151.005,313.603l-19.433,25.907l-21.846-5.463c-6.054-8.342-15.821-13.835-26.895-13.835H49.298
        C30.934,320.212,16,335.147,16,353.51v43.005c0,4.257,1.407,7.248,14.107,16.176c0.709,6.397,1.715,21.509,2.477,33.037
        c3.074,46.328,3.074,46.328,12.445,46.328h36.047c9.146,0,9.146,0,13.403-46.044c1.041-11.269,2.4-25.966,3.275-32.6
        c15.987-8.596,18.375-11.564,18.375-16.897v-42.142l22.738,5.688l26.67-35.556c3.009-4.008,2.193-9.708-1.815-12.711
        C159.708,308.778,154.014,309.594,151.005,313.603z M97.967,392.306c-2.584,1.62-6.681,3.949-10.5,6.007
        c-6.858,0.367-7.213,4.269-11.074,46.032c-0.905,9.779-2.046,22.123-2.903,29.549H52.827c-0.668-7.449-1.478-19.676-2.122-29.36
        c-2.708-40.842-3.027-45.678-9.483-46.245c-2.59-1.833-5.309-3.855-7.059-5.274V353.51c0-8.348,6.787-15.135,15.135-15.135h33.534
        c8.342,0,15.135,6.787,15.135,15.135V392.306z" fill="#9F928B"/>
    </g>
    <g transform="translate(0, 100) scale(0.03)">
        <path d="M438.566,16c-15.251,0-29.589,5.944-40.374,16.728l-24.559,24.559h-0.006l-86.715,86.715
        c-6.472,6.478-6.472,17.013,0,23.491l26.255,26.255c-0.219,0.178-55.892,55.655-55.892,55.655l-85.363-85.363
        c-5.529-5.529-12.849-8.578-20.62-8.578c-12.351,0-23.129,7.463-27.448,19.006L18.207,456.457
        c-3.417,9.124-2.213,18.911,3.298,26.86C27.01,491.266,35.98,496,45.483,496c3.239,0,6.472-0.546,9.61-1.625l288.518-99.113
        c9.604-3.298,16.699-11.176,18.989-21.071c2.29-9.895-0.629-20.086-7.813-27.276l-84.627-84.627c0,0,55.471-55.673,55.655-55.892
        l18.389,18.389c3.138,3.144,7.308,4.864,11.746,4.864c4.443,0,8.613-1.72,11.751-4.864l86.549-86.549l0,0l24.725-24.725
        c10.785-10.785,16.728-25.123,16.728-40.374C475.694,41.944,454.037,16,438.566,16z" fill="#9F928B"/>
    </g>
    <g transform="translate(100, 100) scale(0.03)">
        <path d="M264.734,299.724h10.147l0.012,3.133c2.409,32.066,17.285,64.304,45.334,77.975c-3.602,7.382-9.933,13.072-18.003,15.564
        c-7.975,2.457-39.453,9.363-39.453,9.363l0,0c-0.006,0-0.024,0.006-0.03,0.006l-0.024,0.006l0,0
         c-4.7,1.038-44.289,10.77-48.936,43.281c-2.658,18.573-5.762,36.208-5.768,36.255c-0.469,2.646,0.267,5.376,1.994,7.441
         c1.733,2.065,4.29,3.252,6.984,3.252h267.35c2.694,0,5.251-1.187,6.978-3.252c1.733-2.065,2.468-4.794,2-7.441
         c-0.012-0.047-3.115-17.683-5.774-36.255c-4.652-32.6-44.456-42.296-48.983-43.293l0,0c0,0-31.478-6.907-39.453-9.363
         c-7.844-2.421-14.093-7.856-17.896-15.487c28.173-13.648,43.12-46.081,45.559-78.741v-2.445h9.826c5.032,0,9.114-4.082,9.114-9.114
         c0-5.032-4.082-9.114-9.114-9.114h-6.147l-0.718-7.215c-2.284-23.094-18.151-42.296-40.415-48.894l-10.443-3.097v-2.753
         c0-5.032-4.082-9.114-9.114-9.114H331.72c-5.026,0-9.102,4.071-9.114,9.09l-0.006,2.73l-10.728,3.18
         c-22.168,6.586-38.023,25.693-40.385,48.68l-0.76,7.393h-5.993c-5.038,0-9.114,4.082-9.114,9.114
         C255.62,295.641,259.696,299.724,264.734,299.724z M286.19,419.229l14.906,58.542h-36.801v-53.57
         C265.719,423.792,281.064,420.404,286.19,419.229z M231.826,451.639c1.234-8.651,7.423-14.917,14.241-19.332v45.464h-18.288
         C228.918,470.865,230.431,461.383,231.826,451.639z M319.9,477.772l-16.003-62.88c1.341-0.374,7.981-2.593,10.01-3.542
         l31.378,25.337c1.667,1.353,3.697,2.029,5.726,2.029c2.035,0,4.071-0.676,5.744-2.041l30.98-25.159
         c1.928,0.884,8.396,3.014,9.755,3.388l-15.434,62.868H319.9z M437.032,424.202v53.57h-36.208l14.372-58.53
         C420.311,420.41,435.614,423.792,437.032,424.202z M469.507,451.639c1.388,9.743,2.908,19.225,4.047,26.132H455.26v-45.458
         C462.084,436.722,468.273,442.994,469.507,451.639z M372.485,400.419l-21.492,17.457l-21.973-17.748
         c3.572-3.958,6.503-8.568,8.699-13.701c4.177,0.742,8.497,1.246,13.102,1.246c4.456,0,8.645-0.481,12.71-1.181
         C365.714,391.679,368.746,396.373,372.485,400.419z M350.821,369.445c-36.362,0-55.207-34.131-57.723-67.277v-2.445h115.465
         l0.006,1.756C406.022,335.314,387.177,369.445,350.821,369.445z M384.139,242.855c15.125,4.486,25.901,17.528,27.455,33.229
         l0.534,5.412h-33.253v-40.201L384.139,242.855z M360.647,228.65v52.846h-19.943l0.113-52.846H360.647z M289.62,275.965
         c1.602-15.618,12.378-28.601,27.438-33.075l5.501-1.632l-0.083,40.237H289.05L289.62,275.965z" fill="#9F928B"/>
        <path d="M22.958,17.895c-3.121,2.207-4.759,5.934-4.355,8.782l7.061,345.011l1.905,2.397c3.127,3.952,3.169,4.011,91.528,13.387
        l-3.519,29.977c-0.552,4.711,1.507,9.328,5.376,12.046c12.508,8.77,26.358,13.203,39.026,13.114
        c33.02-0.233,35.507-17.445,35.507-17.445S239.125,84.25,236.454,69.269c-2.396-13.435-12.888-23.403-25.112-28.185
        C164.205,22.618,44.094,16.768,30.88,16.174C28.15,15.676,25.296,16.246,22.958,17.895z M178.036,417.829
        c-8.966,9.316-27.663,8.687-43.975-1.507l35.187-299.689c0.142-1.151,0.801-1.78,1.335-2.112c0.504-0.309,1.549-0.736,2.937-0.237
        c13.327,4.937,29.443,6.337,42.07,2.124L178.036,417.829z M204.696,58.055c9.411,3.691,12.809,11.781,14.223,16.199
        c3.049,9.528-1.472,19.261-2.546,20.685c-4.462,5.981-20.21,8.283-36.528,2.255c-6.29-2.338-13.137-1.673-18.786,1.78
        c-5.542,3.406-9.15,9.067-9.909,15.535l-29.93,254.854c-25.841-2.753-62.494-6.788-77.56-8.734L36.95,34.735
        C65.675,36.278,165.302,42.627,204.696,58.055z" fill="#9F928B"/>
    </g>
    <g transform="translate(150, 50) scale(0.03)">
        <path d="M234.783,45.397C182.746,25.011,46.14,18.352,27.679,17.533l-8.853,2.235c-2.048,1.931-3.645,5.348-2.37,9.456v382.563
        l0.006,3.171l1.972,2.469c3.183,3.967,3.271,4.084,114.605,14.687l-4.096,34.886c-0.562,4.81,1.533,9.526,5.512,12.358
        c13.833,9.69,29.158,13.685,43.107,14.5c26.421,1.544,38.678-18.83,38.678-18.83l46.36-372.054
        c2.241-8.309,2.194-17.718-0.363-26.729C258.153,61.875,248.147,50.64,234.783,45.397z M199.019,467.832
        c-10.492,11.317-32.785,10.638-51.89-1.615l39.602-337.285c0.211-1.802,1.252-2.785,2.083-3.3c1.293-0.784,2.891-0.913,4.383-0.374
        c15.413,5.699,34.178,7.139,48.291,1.72L199.019,467.832z M241.886,105.456c-5.927,7.923-25.372,9.269-42.458,2.949
        c-6.7-2.493-13.991-1.791-20.006,1.908c-5.892,3.604-9.731,9.631-10.544,16.513l-33.745,287.432
        c-33.528-3.195-82.627-8.052-100.702-10.193l-0.07-368.192c33.663,1.744,149.509,8.882,193.862,26.261
        c11.077,4.342,14.763,13.942,16.717,19.029C248.749,91.074,243.197,103.712,241.886,105.456z" fill="#9F928B"/>
        <path d="M411.015,494.467h73.599c6.279,0,11.387-5.102,11.387-11.387V92.419c0-6.284-5.108-11.387-11.387-11.387h-73.599
        c-6.284,0-11.387,5.102-11.387,11.387V483.08C399.628,489.365,404.73,494.467,411.015,494.467z M417.603,99.007h60.421v26.179
        h-18.449c-4.962,0-8.988,4.026-8.988,8.988s4.026,8.988,8.988,8.988h18.449v32.58h-18.449c-4.962,0-8.988,4.026-8.988,8.988
        c0,4.962,4.026,8.988,8.988,8.988h18.449v32.592h-18.449c-4.962,0-8.988,4.026-8.988,8.988c0,4.962,4.026,8.988,8.988,8.988h18.449
        v32.58h-18.449c-4.962,0-8.988,4.026-8.988,8.988c0,4.962,4.026,8.988,8.988,8.988h18.449v32.592h-18.449
        c-4.962,0-8.988,4.026-8.988,8.988s4.026,8.988,8.988,8.988h18.449v32.592h-18.449c-4.962,0-8.988,4.026-8.988,8.988
        s4.026,8.988,8.988,8.988h18.449v32.581h-18.449c-4.962,0-8.988,4.026-8.988,8.988s4.026,8.988,8.988,8.988h18.449v29.959h-60.421   V99.007z"
              fill="#9F928B"/>
        <path d="M341.079,245.175c-4.002-7.958-16.946-8.005-20.977,0.023c0,0-25.933,55.383-25.933,57.578v179.111
        c0,6.94,5.647,12.58,12.586,12.58h47.683c6.934,0,12.58-5.641,12.58-12.58V302.776
        C367.018,300.582,341.079,245.175,341.079,245.175z M312.144,308.171h36.899v134.746h-36.899V308.171z M330.593,264.403
        l12.896,25.793h-25.787L330.593,264.403z M349.043,476.492h-36.899v-15.6h36.899V476.492z" fill="#9F928B"/>
    </g>
    <g transform="translate(200, 0) scale(0.035)">
        <path d="M223.567,319.453h190.372c16.685,0,30.267-13.576,30.267-30.261V203.12h37.684c5.542,0,10.443-3.501,12.775-9.126
        c2.522-6.076,1.394-12.983-2.783-17.16L338.613,22.456c-8.354-8.343-21.699-8.592-29.792-0.522L155.616,177.096
        c-4.165,4.177-5.305,10.977-2.836,16.934c2.326,5.613,7.233,9.09,12.811,9.09h27.704v86.072
        C193.294,305.877,206.876,319.453,223.567,319.453z M344.101,301.225H301.57v-69.529c0-1.673,1.365-3.038,3.038-3.038h36.456
        c1.673,0,3.038,1.365,3.038,3.038V301.225z M425.978,289.192c0,6.634-5.405,12.033-12.039,12.033h-51.61v-69.529
        c0-11.725-9.541-21.266-21.266-21.266h-36.456c-11.725,0-21.266,9.541-21.266,21.266v69.529h-59.775
        c-6.64,0-12.045-5.4-12.045-12.033v-92.385l111.729-112.69l104.608,104.608c-1.104,1.507-1.881,3.269-1.881,5.281V289.192z
        M321.744,34.786c1.026-1.009,2.896-0.51,3.964,0.534L474.2,184.892h-24.399L336.138,71.229c-6.835-6.824-17.961-6.824-24.802,0
        L197.673,184.892h-24.138L321.744,34.786z" fill="#9F928B"/>
        <path d="M483.243,404.861H242.988c-2.611,0-74.104,34.165-74.104,34.165c-4.355,2.172-7.061,6.539-7.061,11.416
        c0,4.865,2.706,9.233,7.055,11.404c0,0,71.505,34.153,74.11,34.153h240.255c7.031,0,12.757-5.72,12.757-12.757V417.63
        C496,410.593,490.274,404.861,483.243,404.861z M186.815,450.442l43.41-21.717v43.422L186.815,450.442z M248.453,423.089h184.711
        v54.684H248.453V423.089z M477.772,477.772h-26.381v-54.684h26.381V477.772z" fill="#9F928B"/>
    </g>
    <g transform="translate(200, 100) scale(0.03)">
        <path class="st0" d="M505.289,6.566c-12.228-12.236-33.338-6.773-55.713,11.412C429.304,34.06,323.102,119.975,267.515,173.466
		c-38.74,33.72-68.875,66.579-75.513,90.892l55.495,55.496c24.314-6.63,57.173-36.78,90.893-75.514
		c53.483-55.586,139.406-161.789,155.495-182.061C512.055,39.904,517.525,18.802,505.289,6.566z" fill="#9F928B"/>
        <polygon class="st0" points="151.256,303.854 208.286,360.892 236.804,332.366 179.767,275.328" fill="#9F928B"/>
        <path class="st0" d="M140.293,314.825c-16.456,16.441-34.55-11.525-69.101,23.018l-3.577,3.584L4.973,404.07
		c-6.436,6.444-6.436,16.875,0,23.318l79.78,79.779c6.435,6.444,16.874,6.444,23.317,0l62.643-62.642l3.577-3.577
		c34.55-34.542,6.578-52.644,23.034-69.1L140.293,314.825z M97.376,496.474c-0.531,0.532-1.391,0.532-1.93,0l-79.78-79.786
		c-0.539-0.524-0.539-1.392,0-1.93l51.949-51.942l81.71,81.71L97.376,496.474z" fill="#9F928B"/>
    </g>
    <g transform="translate(250, 50) scale(0.18)">
        <path d="M66.958,54.602c-1.821-1.821-4.786-1.821-6.608,0l-0.066,0.066l-1.298-1.298l12.849-12.848
    c6.649,2.043,13.76,0.297,18.692-4.635c4.337-4.337,6.27-10.528,5.17-16.56c-0.067-0.366-0.331-0.665-0.686-0.775
    c-0.354-0.111-0.741-0.015-1.005,0.248l-8.954,8.953l-11.038-1.767l-1.767-11.038L81.2,5.994c0.263-0.263,0.358-0.65,0.248-1.005
    s-0.409-0.619-0.775-0.686c-6.031-1.098-12.223,0.833-16.56,5.17c-4.932,4.932-6.679,12.042-4.635,18.692L46.63,41.015
    L19.821,14.206c-0.101-0.101-0.223-0.179-0.356-0.229l-6.717-2.516c-0.368-0.137-0.781-0.048-1.058,0.229
    c-0.277,0.277-0.367,0.691-0.229,1.058l2.516,6.717c0.05,0.134,0.128,0.255,0.229,0.356L41.015,46.63L28.166,59.478
    c-6.65-2.044-13.761-0.296-18.692,4.635c-4.338,4.337-6.271,10.528-5.171,16.56c0.067,0.366,0.331,0.665,0.686,0.775
    c0.355,0.112,0.742,0.016,1.005-0.248l8.954-8.953l11.038,1.767l1.767,11.038L18.8,94.006c-0.263,0.263-0.358,0.65-0.248,1.005
    s0.409,0.619,0.775,0.686C20.442,95.9,21.563,96,22.676,96c4.909,0,9.676-1.938,13.211-5.474c4.932-4.931,6.679-12.042,4.635-18.692
    L53.37,58.985l1.298,1.298l-0.066,0.066c-1.822,1.822-1.822,4.786,0,6.608L78.84,91.195c0.906,0.906,2.096,1.358,3.288,1.358
    c1.197,0,2.396-0.457,3.309-1.37l5.748-5.748c1.822-1.822,1.827-4.781,0.011-6.596L66.958,54.602z M63.693,73.221l1.941-1.941
    l8.877,8.877l-1.941,1.941L63.693,73.221z M71.806,62.28l-2.647,2.647l-4.232,4.232l-2.647,2.647l-2.818-2.818l9.526-9.526
    L71.806,62.28z M69.866,67.048l8.877,8.877l-2.818,2.818l-8.877-8.877L69.866,67.048z M73.985,83.511l2.647-2.647l4.232-4.232
    l2.647-2.647l2.818,2.818l-9.526,9.526L73.985,83.511z M80.157,74.511l-8.877-8.877l1.941-1.941l8.877,8.878L80.157,74.511z
    M61.326,29.147c0.27-0.27,0.363-0.67,0.239-1.032c-2.091-6.091-0.573-12.692,3.962-17.228c3.4-3.399,8.075-5.144,12.808-4.856
    l-7.863,7.863c-0.227,0.227-0.331,0.548-0.28,0.865l1.962,12.257c0.068,0.426,0.403,0.761,0.829,0.829l12.257,1.962
    c0.316,0.051,0.638-0.054,0.865-0.28l7.863-7.863c0.289,4.734-1.457,9.409-4.856,12.808c-4.535,4.536-11.136,6.054-17.228,3.962
    c-0.363-0.126-0.763-0.032-1.032,0.239L57.571,51.956l-2.822-2.822l10.246-10.246c0.519-0.518,0.804-1.208,0.804-1.942
    s-0.286-1.424-0.803-1.942c-1.036-1.036-2.849-1.036-3.884,0L50.866,45.25l-2.822-2.822L61.326,29.147z M52.28,46.665l10.247-10.246
    c0.28-0.281,0.774-0.282,1.055,0c0.141,0.14,0.218,0.328,0.218,0.527s-0.077,0.387-0.218,0.527c0,0,0,0,0,0L53.335,47.72
    L52.28,46.665z M38.674,70.853c-0.27,0.27-0.363,0.67-0.239,1.032c2.091,6.091,0.573,12.692-3.962,17.227
    c-3.399,3.399-8.069,5.146-12.808,4.857l7.863-7.863c0.227-0.227,0.331-0.548,0.28-0.865l-1.962-12.257
    c-0.068-0.426-0.403-0.761-0.829-0.829L14.76,70.192c-0.317-0.053-0.639,0.053-0.865,0.28l-7.863,7.863
    c-0.289-4.734,1.457-9.409,4.857-12.808c4.536-4.535,11.138-6.052,17.227-3.962c0.361,0.123,0.761,0.031,1.032-0.239l13.282-13.282
    l2.822,2.822L35.004,61.111c-0.518,0.518-0.804,1.208-0.804,1.942s0.286,1.424,0.803,1.942c0.518,0.518,1.208,0.804,1.942,0.804
    s1.424-0.286,1.942-0.804L49.134,54.75l2.822,2.822L38.674,70.853z M47.72,53.335L37.474,63.582c-0.28,0.281-0.774,0.282-1.055,0
    c-0.141-0.14-0.218-0.328-0.218-0.527s0.077-0.387,0.218-0.528L46.665,52.28L47.72,53.335z M54.077,56.864l-4.236-4.236l-2.47-2.47
    l-4.236-4.236L15.773,18.561l-1.669-4.456l4.456,1.669l27.362,27.362l4.236,4.236l2.47,2.47l4.236,4.236l2.005,2.005l-2.787,2.787
    L54.077,56.864z M56.016,61.764l0.773-0.773l4.201-4.201l0.773-0.773c0.521-0.521,1.206-0.781,1.89-0.781
    c0.685,0,1.369,0.26,1.89,0.781l2.031,2.031l-9.528,9.528l-2.031-2.031C54.974,64.502,54.974,62.806,56.016,61.764z M89.77,84.022
    l-5.748,5.748c-0.505,0.505-1.175,0.784-1.887,0.786c-0.708,0.007-1.379-0.273-1.881-0.775l-2.037-2.037l9.527-9.527l2.037,2.037
    c0.502,0.502,0.777,1.17,0.775,1.881C90.554,82.847,90.275,83.517,89.77,84.022z" fill="#9F928B"/>
    </g>
</svg>